<svg width="112" height="112" viewBox="0 0 112 112" fill="none" xmlns="http://www.w3.org/2000/svg">
<path d="M1.9989 110.106V102.425H7.17443V103.764H3.62282V105.594H6.90815V106.933H3.62282V108.767H7.18943V110.106H1.9989Z" fill="#31007A"/>
<path d="M9.88255 102.425L11.4315 105.043H11.4915L13.0479 102.425H14.8818L12.5378 106.265L14.9343 110.106H13.0666L11.4915 107.484H11.4315L9.85629 110.106H7.9961L10.4001 106.265L8.04111 102.425H9.88255Z" fill="#31007A"/>
<path d="M22.2198 105.114H20.5771C20.5471 104.901 20.4858 104.713 20.3933 104.548C20.3008 104.38 20.1821 104.238 20.037 104.12C19.892 104.003 19.7245 103.913 19.5345 103.85C19.347 103.788 19.1432 103.756 18.9232 103.756C18.5256 103.756 18.1794 103.855 17.8843 104.053C17.5893 104.248 17.3605 104.533 17.198 104.908C17.0355 105.28 16.9542 105.733 16.9542 106.265C16.9542 106.813 17.0355 107.273 17.198 107.645C17.363 108.018 17.593 108.299 17.8881 108.489C18.1831 108.679 18.5244 108.774 18.9119 108.774C19.1295 108.774 19.3307 108.746 19.5157 108.688C19.7033 108.631 19.8695 108.547 20.0145 108.437C20.1596 108.324 20.2796 108.188 20.3746 108.028C20.4721 107.868 20.5396 107.685 20.5771 107.48L22.2198 107.488C22.1773 107.841 22.071 108.181 21.901 108.508C21.7335 108.833 21.5072 109.124 21.2222 109.382C20.9396 109.637 20.6021 109.839 20.2096 109.989C19.8195 110.137 19.3782 110.211 18.8857 110.211C18.2006 110.211 17.588 110.056 17.048 109.746C16.5104 109.436 16.0854 108.987 15.7729 108.399C15.4628 107.812 15.3078 107.1 15.3078 106.265C15.3078 105.428 15.4653 104.715 15.7804 104.128C16.0954 103.54 16.5229 103.093 17.063 102.785C17.603 102.475 18.2106 102.32 18.8857 102.32C19.3307 102.32 19.7433 102.382 20.1233 102.507C20.5058 102.632 20.8446 102.815 21.1397 103.055C21.4347 103.293 21.6747 103.584 21.8597 103.929C22.0473 104.274 22.1673 104.669 22.2198 105.114Z" fill="#31007A"/>
<path d="M23.2787 110.106V102.425H24.9026V105.594H28.1992V102.425H29.8193V110.106H28.1992V106.933H24.9026V110.106H23.2787Z" fill="#31007A"/>
<path d="M32.3765 110.106H30.6363L33.2878 102.425H35.3805L38.0283 110.106H36.2881L34.3642 104.18H34.3042L32.3765 110.106ZM32.2677 107.087H36.3781V108.354H32.2677V107.087Z" fill="#31007A"/>
<path d="M45.2716 102.425V110.106H43.8689L40.5273 105.271H40.4711V110.106H38.8472V102.425H40.2723L43.5877 107.255H43.6552V102.425H45.2716Z" fill="#31007A"/>
<path d="M51.6007 104.908C51.5482 104.725 51.4744 104.564 51.3794 104.424C51.2844 104.281 51.1682 104.161 51.0306 104.064C50.8956 103.964 50.7406 103.888 50.5656 103.835C50.3931 103.783 50.2018 103.756 49.9918 103.756C49.5992 103.756 49.2542 103.854 48.9567 104.049C48.6616 104.244 48.4316 104.528 48.2666 104.9C48.1016 105.27 48.0191 105.723 48.0191 106.258C48.0191 106.793 48.1003 107.248 48.2629 107.623C48.4254 107.998 48.6554 108.284 48.9529 108.482C49.2505 108.677 49.6017 108.774 50.0068 108.774C50.3743 108.774 50.6881 108.709 50.9481 108.579C51.2107 108.447 51.4107 108.261 51.5482 108.021C51.6882 107.781 51.7582 107.497 51.7582 107.169L52.0882 107.218H50.108V105.995H53.3221V106.963C53.3221 107.638 53.1796 108.218 52.8946 108.703C52.6095 109.186 52.217 109.558 51.717 109.821C51.2169 110.081 50.6443 110.211 49.9993 110.211C49.2792 110.211 48.6466 110.052 48.1016 109.734C47.5565 109.414 47.1315 108.961 46.8265 108.373C46.5239 107.783 46.3727 107.083 46.3727 106.273C46.3727 105.65 46.4627 105.095 46.6427 104.608C46.8252 104.118 47.0802 103.703 47.4078 103.363C47.7353 103.023 48.1166 102.764 48.5516 102.586C48.9867 102.409 49.458 102.32 49.9655 102.32C50.4006 102.32 50.8056 102.384 51.1807 102.511C51.5557 102.636 51.8882 102.814 52.1783 103.044C52.4708 103.274 52.7096 103.548 52.8946 103.865C53.0796 104.18 53.1984 104.528 53.2509 104.908H51.6007Z" fill="#31007A"/>
<path d="M54.4363 110.106V102.425H59.6118V103.764H56.0602V105.594H59.3456V106.933H56.0602V108.767H59.6269V110.106H54.4363Z" fill="#31007A"/>
<path d="M63.136 110.106V102.425H66.2113C66.7764 102.425 67.2477 102.509 67.6252 102.676C68.0028 102.844 68.2865 103.076 68.4766 103.374C68.6666 103.669 68.7616 104.009 68.7616 104.394C68.7616 104.694 68.7016 104.958 68.5816 105.185C68.4616 105.41 68.2965 105.595 68.0865 105.74C67.879 105.883 67.6415 105.984 67.3739 106.044V106.119C67.6665 106.132 67.9403 106.214 68.1953 106.367C68.4528 106.519 68.6616 106.733 68.8216 107.008C68.9816 107.28 69.0616 107.605 69.0616 107.983C69.0616 108.391 68.9604 108.754 68.7578 109.074C68.5578 109.392 68.2615 109.643 67.869 109.828C67.4765 110.013 66.9927 110.106 66.4176 110.106H63.136ZM64.7599 108.778H66.0838C66.5364 108.778 66.8664 108.692 67.0739 108.519C67.2814 108.344 67.3852 108.112 67.3852 107.822C67.3852 107.609 67.3339 107.422 67.2314 107.259C67.1289 107.097 66.9827 106.969 66.7926 106.877C66.6051 106.784 66.3813 106.738 66.1213 106.738H64.7599V108.778ZM64.7599 105.639H65.9638C66.1863 105.639 66.3838 105.6 66.5564 105.523C66.7314 105.443 66.8689 105.33 66.9689 105.185C67.0714 105.04 67.1227 104.866 67.1227 104.664C67.1227 104.386 67.0239 104.163 66.8264 103.993C66.6314 103.823 66.3538 103.738 65.9938 103.738H64.7599V105.639Z" fill="#31007A"/>
<path d="M69.5626 102.425H71.3816L73.133 105.733H73.208L74.9594 102.425H76.7784L73.9768 107.39V110.106H72.3642V107.39L69.5626 102.425Z" fill="#31007A"/>
<path d="M79.8984 110.106V102.425H81.5223V108.767H84.8152V110.106H79.8984Z" fill="#31007A"/>
<path d="M87.4089 102.425V110.106H85.785V102.425H87.4089Z" fill="#31007A"/>
<path d="M89.5432 110.203C89.2957 110.203 89.0832 110.116 88.9056 109.941C88.7306 109.763 88.6431 109.551 88.6431 109.303C88.6431 109.058 88.7306 108.848 88.9056 108.673C89.0832 108.498 89.2957 108.411 89.5432 108.411C89.7832 108.411 89.9932 108.498 90.1733 108.673C90.3533 108.848 90.4433 109.058 90.4433 109.303C90.4433 109.468 90.4008 109.619 90.3158 109.757C90.2333 109.892 90.1245 110.001 89.9895 110.083C89.8545 110.163 89.7057 110.203 89.5432 110.203Z" fill="#31007A"/>
<path d="M91.6794 110.106V102.425H96.7649V103.764H93.3033V105.594H96.4274V106.933H93.3033V110.106H91.6794Z" fill="#31007A"/>
<path d="M99.3755 102.425V110.106H97.7516V102.425H99.3755Z" fill="#31007A"/>
<path d="M61.7382 31.9998L38.0002 55.7379L44.4742 62.2119C46.8579 64.5956 50.7226 64.5956 53.1062 62.2119L79.0022 36.3158C81.3859 33.9321 81.3859 30.0674 79.0022 27.6837L63.8962 12.5776L53.1062 23.3677L61.7382 31.9998Z" fill="#31007A"/>
<path d="M38.0002 8.2618L44.4742 1.78776C46.8579 -0.595919 50.7226 -0.595919 53.1062 1.78776L59.5802 8.2618L48.7902 19.0519L38.0002 8.2618Z" fill="#8700B8"/>
<path d="M94.8411 89.3338H98.8411L98.8411 84.0005L110.841 84.0005L110.841 81.3338C110.841 80.5974 110.244 80.0005 109.508 80.0005L96.1744 80.0005C95.438 80.0005 94.8411 80.5974 94.8411 81.3338L94.8411 89.3338Z" fill="#31007A"/>
<path d="M98.8411 96.0005L96.1744 96.0005C95.438 96.0005 94.8411 95.4035 94.8411 94.6672L94.8411 92.0005L98.8411 92.0005L98.8411 96.0005Z" fill="#8700B8"/>
<path d="M80.1743 92.0005V89.3338H88.1743V86.6672L80.1743 86.6672L80.1743 84.0005L92.1743 84.0005V81.3338C92.1743 80.5974 91.5774 80.0005 90.841 80.0005H77.5077C77.4156 80.0005 77.3257 80.0098 77.2389 80.0276C76.6314 80.1519 76.1743 80.6895 76.1743 81.3338V94.6672C76.1743 95.4035 76.7713 96.0005 77.5076 96.0005H90.841C91.5774 96.0005 92.1743 95.4035 92.1743 94.6672V92.0005H80.1743Z" fill="#31007A"/>
<path d="M57.5077 90.0005H61.5077V96.0005H58.841C58.1046 96.0005 57.5077 95.4035 57.5077 94.6672V90.0005Z" fill="#31007A"/>
<path fill-rule="evenodd" clip-rule="evenodd" d="M58.841 80.0005C58.1046 80.0005 57.5077 80.5974 57.5077 81.3338V92.0005H69.5077C71.7168 92.0005 73.5077 90.2096 73.5077 88.0005V84.0005C73.5077 81.7913 71.7168 80.0005 69.5077 80.0005H58.841ZM68.1744 84.0005H61.5077V88.0005H68.1744C68.9107 88.0005 69.5077 87.4035 69.5077 86.6672V85.3338C69.5077 84.5974 68.9107 84.0005 68.1744 84.0005Z" fill="#31007A"/>
<path d="M54.8411 81.3338C54.8411 80.5974 54.2441 80.0005 53.5077 80.0005H40.1744C39.438 80.0005 38.8411 80.5974 38.8411 81.3338V94.6672C38.8411 95.4035 39.438 96.0005 40.1744 96.0005H42.8411L42.8411 84.0005L44.8411 84.0005L44.8411 96.0005H48.8411L48.8411 84.0005L50.8411 84.0005L50.8411 96.0005H53.5077C54.2441 96.0005 54.8411 95.4035 54.8411 94.6672V81.3338Z" fill="#31007A"/>
<path d="M20.1743 81.3338C20.1743 80.5974 20.7713 80.0005 21.5076 80.0005H24.1743V92.0005H32.1743V80.0005H34.841C35.5774 80.0005 36.1743 80.5974 36.1743 81.3338V94.6672C36.1743 95.4035 35.5774 96.0005 34.841 96.0005H21.5076C20.7713 96.0005 20.1743 95.4035 20.1743 94.6672V81.3338Z" fill="#31007A"/>
<path d="M13.5077 80.0005H16.1744C16.9107 80.0005 17.5077 80.5974 17.5077 81.3338V84.0005H13.5077V80.0005Z" fill="#8700B8"/>
<path d="M17.5077 86.6671H13.5077V92.0004H1.50769V94.6671C1.50769 95.4035 2.10464 96.0004 2.84102 96.0004H16.1744C16.9107 96.0004 17.5077 95.4035 17.5077 94.6671V86.6671Z" fill="#31007A"/>
</svg>
